<?xml version="1.0" encoding="UTF-8"?>
<svg xmlns="http://www.w3.org/2000/svg" viewBox="0 0 1200 800" width="1200" height="800">
  <title>澜江逐浪·从杂多到勐腊</title>
  <g id="rivers">
  <path d="M 20.00 20.00 C 20.00 20.00 53.15 34.26 73.02 41.70 C 92.89 49.15 118.53 56.99 139.22 64.66 C 159.91 72.33 187.32 83.82 197.15 87.73 C 206.99 91.64 198.24 88.12 198.24 88.12" fill="none" stroke="#e6194b" stroke-width="16.0" stroke-linecap="round" stroke-linejoin="round"/>
  <path d="M 198.24 88.12 C 198.24 88.12 217.08 104.47 226.17 112.74 C 235.25 121.01 245.48 129.84 252.73 137.76 C 259.97 145.68 269.64 160.25 269.64 160.25" fill="none" stroke="#3cb44b" stroke-width="16.0" stroke-linecap="round" stroke-linejoin="round"/>
  <path d="M 269.64 160.25 C 269.64 160.25 271.04 177.41 272.29 186.09 C 273.54 194.76 271.18 204.07 277.14 212.29 C 283.10 220.51 288.47 228.58 308.08 235.41 C 327.69 242.25 379.77 249.94 394.80 253.29 C 409.83 256.65 398.27 255.53 398.27 255.53" fill="none" stroke="#ffe119" stroke-width="16.0" stroke-linecap="round" stroke-linejoin="round"/>
  <path d="M 398.27 255.53 C 398.27 255.53 448.06 262.60 451.00 268.55 C 453.95 274.49 421.43 283.30 415.96 291.20 C 410.49 299.11 409.57 307.87 418.20 316.00 C 426.82 324.13 459.88 335.78 467.72 339.99 C 475.55 344.20 465.21 341.25 465.21 341.25" fill="none" stroke="#4363d8" stroke-width="16.0" stroke-linecap="round" stroke-linejoin="round"/>
  <path d="M 465.21 341.25 C 465.21 341.25 519.46 354.57 524.55 360.68 C 529.64 366.80 506.27 372.17 495.72 377.94 C 485.17 383.71 476.62 390.52 461.27 395.30 C 445.92 400.09 403.62 406.65 403.62 406.65" fill="none" stroke="#f58231" stroke-width="16.0" stroke-linecap="round" stroke-linejoin="round"/>
  <path d="M 403.62 406.65 C 403.62 406.65 428.71 414.56 446.03 418.49 C 463.35 422.41 480.82 428.58 507.54 430.20 C 534.27 431.82 578.40 428.91 606.39 428.21 C 634.38 427.52 675.46 426.05 675.46 426.05" fill="none" stroke="#911eb4" stroke-width="16.0" stroke-linecap="round" stroke-linejoin="round"/>
  <path d="M 675.46 426.05 C 675.46 426.05 639.45 439.22 628.95 447.91 C 618.46 456.60 621.65 468.99 612.49 478.19 C 603.33 487.39 568.83 500.46 573.98 503.11 C 579.13 505.75 618.47 493.79 643.39 494.05 C 668.31 494.30 703.95 503.78 723.49 504.64 C 743.02 505.49 760.58 499.18 760.58 499.18" fill="none" stroke="#46f0f0" stroke-width="16.0" stroke-linecap="round" stroke-linejoin="round"/>
  <path d="M 760.58 499.18 C 760.58 499.18 799.96 482.87 826.34 482.16 C 852.72 481.45 890.07 488.95 918.89 494.90 C 947.70 500.85 985.78 508.88 999.22 517.87 C 1012.65 526.87 987.10 540.15 999.50 548.87 C 1011.90 557.59 1059.13 565.18 1073.63 570.19 C 1088.12 575.19 1086.48 578.90 1086.48 578.90" fill="none" stroke="#f032e6" stroke-width="16.0" stroke-linecap="round" stroke-linejoin="round"/>
  <path d="M 1086.48 578.90 C 1086.48 578.90 1105.71 589.24 1115.28 596.76 C 1124.84 604.29 1136.14 614.68 1143.86 624.07 C 1151.58 633.45 1159.82 646.89 1161.58 653.10 C 1163.34 659.32 1154.43 661.37 1154.43 661.37" fill="none" stroke="#bcf60c" stroke-width="16.0" stroke-linecap="round" stroke-linejoin="round"/>
  <path d="M 1154.43 661.37 C 1154.43 661.37 1168.44 683.32 1161.01 690.78 C 1153.58 698.25 1130.07 700.84 1109.86 706.17 C 1089.64 711.49 1054.29 718.84 1039.69 722.73 C 1025.10 726.62 1022.28 729.50 1022.28 729.50" fill="none" stroke="#fabebe" stroke-width="16.0" stroke-linecap="round" stroke-linejoin="round"/>
  <path d="M 1022.28 729.50 C 1022.28 729.50 1046.09 747.86 1056.83 754.28 C 1067.57 760.71 1079.69 765.34 1086.72 768.05 C 1093.75 770.76 1099.00 770.56 1099.00 770.56" fill="none" stroke="#008080" stroke-width="16.0" stroke-linecap="round" stroke-linejoin="round"/>
  <path d="M 1099.00 770.56 L 1180.00 779.67" fill="none" stroke="#e6beff" stroke-width="16.0" stroke-linecap="round" stroke-linejoin="round"/>
  </g>
</svg>
