<?xml version="1.0" encoding="UTF-8"?>
<svg xmlns="http://www.w3.org/2000/svg" viewBox="0 0 1200 800" width="1200" height="800">
  <title>澜江逐浪·从杂多到勐腊</title>
  <g id="rivers">
  <path d="M 20.00 20.00 C 20.00 20.00 32.96 28.93 44.14 33.37 C 55.32 37.81 72.87 42.30 87.07 46.64 C 101.27 50.98 116.18 55.05 129.33 59.41 C 142.48 63.76 154.65 68.03 165.98 72.75 C 177.30 77.48 189.77 82.75 197.26 87.75 C 204.76 92.74 204.93 97.77 210.93 102.73 C 216.93 107.68 227.71 112.54 233.26 117.47 C 238.81 122.39 240.09 127.46 244.24 132.29 C 248.39 137.11 254.47 141.51 258.15 146.41 C 261.84 151.31 263.15 156.64 266.37 161.68 C 269.60 166.72 276.15 171.45 277.51 176.65 C 278.86 181.85 274.87 187.57 274.49 192.88 C 274.11 198.19 271.08 203.32 275.22 208.50 C 279.35 213.67 292.80 219.18 299.30 223.92 C 305.79 228.66 303.70 232.78 314.17 236.93 C 324.65 241.09 345.45 246.21 362.14 248.85 C 378.84 251.50 398.68 250.47 414.34 252.78 C 430.01 255.09 452.50 258.64 456.14 262.73 C 459.79 266.81 442.75 272.63 436.23 277.29 C 429.70 281.95 423.84 285.61 416.99 290.69 C 410.14 295.76 393.90 302.91 395.10 307.76 C 396.30 312.61 413.36 315.22 424.19 319.77 C 435.02 324.33 450.95 330.38 460.09 335.08 C 469.23 339.77 469.30 344.07 479.05 347.94 C 488.81 351.82 509.67 354.91 518.63 358.31 C 527.60 361.72 538.48 365.07 532.85 368.37 C 527.21 371.67 498.24 374.18 484.84 378.14 C 471.43 382.09 461.69 389.01 452.42 392.10 C 443.15 395.19 438.57 393.26 429.23 396.68 C 419.90 400.10 395.54 409.82 396.41 412.64 C 397.27 415.45 423.72 411.14 434.42 413.55 C 445.11 415.95 448.36 424.29 460.57 427.07 C 472.78 429.85 489.52 429.43 507.68 430.23 C 525.83 431.04 549.17 432.48 569.50 431.89 C 589.83 431.31 613.23 427.33 629.66 426.72 C 646.10 426.12 670.05 425.96 668.10 428.26 C 666.16 430.56 626.06 435.74 617.99 440.54 C 609.93 445.33 619.76 451.22 619.71 457.04 C 619.66 462.86 625.43 470.16 617.70 475.43 C 609.96 480.70 579.30 483.99 573.31 488.66 C 567.31 493.33 574.64 502.25 581.72 503.44 C 588.79 504.63 601.39 497.61 615.76 495.83 C 630.13 494.05 649.95 491.70 667.93 492.76 C 685.90 493.83 707.12 501.27 723.64 502.20 C 740.15 503.13 752.85 500.71 767.02 498.33 C 781.20 495.95 793.84 490.26 808.67 487.92 C 823.51 485.58 838.85 483.83 856.02 484.30 C 873.19 484.76 895.64 487.05 911.68 490.71 C 927.72 494.38 936.89 501.51 952.25 506.29 C 967.62 511.06 996.09 514.02 1003.87 519.36 C 1011.66 524.70 997.25 532.32 998.97 538.33 C 1000.69 544.35 1004.47 550.28 1014.18 555.43 C 1023.89 560.58 1045.06 565.25 1057.23 569.22 C 1069.40 573.19 1078.49 575.40 1087.20 579.24 C 1095.91 583.08 1102.71 588.40 1109.50 592.27 C 1116.28 596.13 1121.16 598.08 1127.90 602.44 C 1134.64 606.79 1147.53 612.58 1149.94 618.41 C 1152.34 624.23 1140.22 631.53 1142.34 637.38 C 1144.46 643.22 1160.46 647.89 1162.67 653.47 C 1164.88 659.06 1156.95 665.10 1155.58 670.91 C 1154.21 676.73 1152.77 682.42 1154.44 688.35 C 1156.11 694.29 1174.23 703.10 1165.60 706.51 C 1156.97 709.92 1119.12 706.69 1102.68 708.82 C 1086.24 710.95 1080.34 715.82 1066.94 719.28 C 1053.54 722.73 1022.04 725.75 1022.26 729.54 C 1022.47 733.34 1061.54 736.94 1068.22 742.08 C 1074.90 747.22 1059.48 756.26 1062.33 760.38 C 1065.17 764.51 1075.71 764.39 1085.29 766.83 C 1094.88 769.27 1104.69 772.89 1119.84 775.03 C 1135.00 777.16 1166.20 778.85 1176.23 779.63 C 1186.25 780.40 1180.00 779.67 1180.00 779.67" fill="none" stroke="#4A90E2" stroke-width="16.0" stroke-linecap="round" stroke-linejoin="round"/>
  </g>
</svg>
