<?xml version="1.0" encoding="UTF-8"?>
<svg xmlns="http://www.w3.org/2000/svg" viewBox="0 0 1200 800" width="1200" height="800">
  <title>怒水奔腾·从安多到瑞丽</title>
  <g id="rivers">
  <path d="M 128.35 24.38 C 128.35 24.38 104.69 24.63 92.51 27.77 C 80.32 30.92 66.58 37.92 55.26 43.26 C 43.94 48.60 22.91 54.41 24.57 59.84 C 26.23 65.27 52.52 71.79 65.24 75.85 C 77.97 79.91 86.15 83.70 100.90 84.18 C 115.65 84.66 135.49 80.37 153.75 78.76 C 172.00 77.14 190.36 75.00 210.43 74.49 C 230.50 73.97 251.79 75.21 274.20 75.66 C 296.60 76.11 320.69 76.83 344.87 77.19 C 369.04 77.54 396.91 77.62 419.27 77.79 C 441.63 77.96 467.54 76.00 479.03 78.20 C 490.52 80.40 478.85 88.49 488.20 91.00 C 497.56 93.51 525.51 91.27 535.15 93.26 C 544.80 95.25 541.05 103.23 546.06 102.93 C 551.07 102.63 552.95 92.12 565.23 91.47 C 577.50 90.82 600.70 97.36 619.71 99.04 C 638.73 100.72 657.36 99.90 679.31 101.54 C 701.26 103.18 732.64 105.08 751.41 108.88 C 770.17 112.68 776.64 119.84 791.88 124.35 C 807.12 128.85 823.89 131.68 842.87 135.91 C 861.85 140.14 890.23 144.48 905.74 149.73 C 921.24 154.98 921.49 162.58 935.89 167.43 C 950.28 172.27 977.62 173.97 992.10 178.82 C 1006.58 183.67 1011.52 190.79 1022.77 196.54 C 1034.01 202.28 1051.13 207.80 1059.57 213.29 C 1068.02 218.79 1065.84 224.24 1073.43 229.48 C 1081.01 234.72 1096.23 238.87 1105.07 244.76 C 1113.91 250.65 1122.10 257.79 1126.48 264.80 C 1130.85 271.82 1129.67 279.33 1131.30 286.85 C 1132.94 294.36 1137.03 302.55 1136.28 309.89 C 1135.53 317.24 1127.07 324.12 1126.82 330.94 C 1126.58 337.77 1134.58 344.24 1134.82 350.85 C 1135.06 357.46 1124.05 364.08 1128.27 370.59 C 1132.49 377.11 1152.94 383.93 1160.12 389.93 C 1167.29 395.93 1178.09 402.58 1171.31 406.60 C 1164.52 410.61 1137.14 410.66 1119.41 414.01 C 1101.68 417.35 1069.36 421.43 1064.93 426.66 C 1060.50 431.89 1089.95 440.55 1092.85 445.41 C 1095.74 450.27 1083.84 452.08 1082.29 455.83 C 1080.74 459.57 1082.60 463.32 1083.55 467.86 C 1084.50 472.40 1086.11 477.00 1087.99 483.09 C 1089.87 489.17 1095.60 498.37 1094.85 504.37 C 1094.09 510.38 1083.45 513.37 1083.46 519.10 C 1083.47 524.83 1089.92 532.28 1094.91 538.77 C 1099.90 545.26 1115.64 552.67 1113.40 558.06 C 1111.16 563.44 1082.92 565.27 1081.48 571.08 C 1080.05 576.89 1111.99 587.47 1104.78 592.89 C 1097.58 598.31 1060.68 600.66 1038.26 603.60 C 1015.85 606.54 987.08 606.32 970.29 610.53 C 953.50 614.73 945.42 622.39 937.51 628.81 C 929.59 635.22 928.95 643.29 922.80 649.03 C 916.65 654.77 899.34 657.75 900.60 663.25 C 901.86 668.74 920.41 676.66 930.34 682.00 C 940.28 687.34 955.14 689.69 960.22 695.28 C 965.30 700.87 962.89 708.89 960.82 715.55 C 958.74 722.22 950.76 728.32 947.76 735.26 C 944.76 742.20 944.69 749.86 942.83 757.19 C 940.97 764.52 938.59 775.44 936.60 779.24 C 934.61 783.04 930.87 780.00 930.87 780.00" fill="none" stroke="#4A90E2" stroke-width="16.0" stroke-linecap="round" stroke-linejoin="round"/>
  </g>
</svg>
