<?xml version="1.0" encoding="UTF-8"?>
<svg xmlns="http://www.w3.org/2000/svg" viewBox="0 0 1200 800" width="1200" height="800">
  <title>松沧逐浪·从长白到瀚海</title>
  <g id="rivers">
  <path d="M 496.01 779.93 C 496.01 779.93 465.08 773.88 454.66 769.73 C 444.24 765.59 439.06 759.89 433.50 755.08 C 427.93 750.27 426.12 744.36 421.29 740.89 C 416.46 737.41 404.52 734.24 404.52 734.24" fill="none" stroke="#e6194b" stroke-width="16" stroke-linecap="round" stroke-linejoin="round"/>
  <path d="M 404.52 734.24 C 404.52 734.24 406.62 718.57 400.83 715.25 C 395.05 711.93 373.89 718.80 369.79 714.31 C 365.69 709.83 371.72 694.89 376.22 688.33 C 380.72 681.77 396.80 674.96 396.80 674.96" fill="none" stroke="#3cb44b" stroke-width="16" stroke-linecap="round" stroke-linejoin="round"/>
  <path d="M 396.80 674.96 C 396.80 674.96 400.83 655.50 395.68 647.60 C 390.52 639.70 371.41 635.02 365.87 627.57 C 360.34 620.11 360.39 609.31 362.47 602.88 C 364.56 596.45 379.48 594.39 378.38 588.98 C 377.28 583.57 360.16 574.43 355.87 570.41 C 351.58 566.38 352.62 564.83 352.62 564.83" fill="none" stroke="#ffe119" stroke-width="16" stroke-linecap="round" stroke-linejoin="round"/>
  <path d="M 352.62 564.83 C 352.62 564.83 341.10 550.28 331.63 543.77 C 322.16 537.25 302.74 532.12 295.81 525.74 C 288.87 519.36 291.80 513.46 290.03 505.47 C 288.26 497.49 285.71 486.70 285.19 477.84 C 284.67 468.98 286.67 457.53 286.90 452.32 C 287.13 447.10 286.59 446.55 286.59 446.55" fill="none" stroke="#4363d8" stroke-width="16" stroke-linecap="round" stroke-linejoin="round"/>
  <path d="M 286.59 446.55 C 286.59 446.55 274.11 432.07 266.37 425.02 C 258.63 417.97 251.26 409.11 240.16 404.25 C 229.07 399.39 212.30 399.97 199.81 395.84 C 187.31 391.70 175.91 380.99 165.20 379.46 C 154.48 377.93 135.54 386.64 135.54 386.64" fill="none" stroke="#f58231" stroke-width="16" stroke-linecap="round" stroke-linejoin="round"/>
  <path d="M 135.54 386.64 C 135.54 386.64 107.84 389.99 95.83 385.97 C 83.81 381.95 74.72 370.07 63.45 362.52 C 52.18 354.97 34.89 348.90 28.22 340.65 C 21.55 332.40 20.07 317.47 23.43 313.00 C 26.79 308.54 48.38 313.86 48.38 313.86" fill="none" stroke="#911eb4" stroke-width="16" stroke-linecap="round" stroke-linejoin="round"/>
  <path d="M 48.38 313.86 C 48.38 313.86 65.33 315.50 77.23 316.59 C 89.12 317.67 106.81 321.77 119.77 320.38 C 132.74 318.98 142.20 311.31 155.01 308.21 C 167.82 305.11 184.62 305.55 196.66 301.78 C 208.70 298.01 214.68 289.10 227.24 285.61 C 239.79 282.12 259.15 283.25 272.01 280.85 C 284.88 278.45 304.43 271.21 304.43 271.21" fill="none" stroke="#46f0f0" stroke-width="16" stroke-linecap="round" stroke-linejoin="round"/>
  <path d="M 304.43 271.21 C 304.43 271.21 322.60 254.50 335.30 249.37 C 348.00 244.23 366.36 239.90 380.64 240.42 C 394.92 240.93 408.87 252.86 420.96 252.46 C 433.06 252.06 440.76 238.33 453.21 238.04 C 465.66 237.74 480.48 248.69 495.67 250.70 C 510.85 252.72 528.88 249.69 544.33 250.11 C 559.78 250.54 588.38 253.25 588.38 253.25" fill="none" stroke="#f032e6" stroke-width="16" stroke-linecap="round" stroke-linejoin="round"/>
  <path d="M 588.38 253.25 C 588.38 253.25 623.94 246.82 637.94 247.07 C 651.94 247.32 661.34 257.90 672.38 254.75 C 683.42 251.61 693.90 237.19 704.16 228.20 C 714.42 219.21 727.85 206.15 733.94 200.80 C 740.02 195.46 740.65 196.14 740.65 196.14" fill="none" stroke="#bcf60c" stroke-width="16" stroke-linecap="round" stroke-linejoin="round"/>
  <path d="M 740.65 196.14 C 740.65 196.14 762.35 180.44 772.16 171.81 C 781.97 163.19 789.07 150.41 799.50 144.39 C 809.92 138.37 820.93 138.73 834.72 135.71 C 848.52 132.69 873.75 128.78 882.28 126.26 C 890.80 123.75 885.89 120.62 885.89 120.62" fill="none" stroke="#fabebe" stroke-width="16" stroke-linecap="round" stroke-linejoin="round"/>
  <path d="M 885.89 120.62 C 885.89 120.62 903.89 105.16 916.05 99.26 C 928.20 93.35 945.86 87.24 958.82 85.18 C 971.77 83.12 993.78 86.91 993.78 86.91" fill="none" stroke="#008080" stroke-width="16" stroke-linecap="round" stroke-linejoin="round"/>
  <path d="M 993.78 86.91 C 993.78 86.91 1026.15 83.22 1042.90 82.09 C 1059.65 80.95 1083.97 82.31 1094.28 80.11 C 1104.58 77.92 1104.75 68.93 1104.75 68.93" fill="none" stroke="#e6beff" stroke-width="16" stroke-linecap="round" stroke-linejoin="round"/>
  <path d="M 1104.75 68.93 C 1104.75 68.93 1135.11 57.46 1146.18 49.90 C 1157.26 42.35 1165.56 28.58 1171.20 23.60 C 1176.83 18.62 1180.00 20.00 1180.00 20.00" fill="none" stroke="#9a6324" stroke-width="16" stroke-linecap="round" stroke-linejoin="round"/>
  </g>
</svg>
