<?xml version="1.0" encoding="UTF-8"?>
<svg xmlns="http://www.w3.org/2000/svg" viewBox="0 0 800 630" width="800" height="630">
  <title>江河挑战路线</title>
  <g id="rivers">
  <path fill="none" stroke="#2196F3" stroke-width="12.0" stroke-linecap="round" stroke-linejoin="round" d="M 40.60 249.89 C 40.45 248.42 39.76 246.89 40.00 244.02 C 40.24 241.15 39.90 240.09 41.56 238.40 C 43.21 236.72 43.55 237.26 46.61 237.28 C 49.67 237.31 50.30 238.31 53.80 238.50 C 57.30 238.69 57.10 237.74 60.61 238.06 C 64.12 238.38 64.28 239.64 67.84 239.79 C 71.40 239.93 70.92 238.92 74.84 238.63 C 78.76 238.34 80.02 239.43 83.50 238.62 C 86.98 237.82 85.82 236.87 88.75 235.41 C 91.67 233.94 92.06 233.95 95.20 232.77 C 98.34 231.59 98.06 230.58 101.30 230.68 C 104.53 230.79 105.05 232.13 108.15 233.20 C 111.25 234.27 111.12 233.65 113.70 234.96 C 116.28 236.28 116.30 236.49 118.47 238.46 C 120.63 240.42 120.33 241.18 122.37 242.83 C 124.40 244.48 124.80 244.43 126.60 245.05 C 128.41 245.68 127.92 244.76 129.58 245.33 C 131.23 245.91 131.61 246.13 133.24 247.34 C 134.87 248.56 134.62 249.15 136.08 250.18 C 137.54 251.22 137.60 250.55 139.10 251.47 C 140.59 252.39 140.19 252.35 142.07 253.87 C 143.95 255.39 144.56 255.57 146.62 257.55 C 148.68 259.52 147.65 260.15 150.31 261.77 C 152.96 263.39 154.41 262.57 157.24 264.01 C 160.07 265.46 159.80 265.52 161.64 267.54 C 163.48 269.56 163.16 269.92 164.61 272.11 C 166.07 274.30 165.62 274.19 167.46 276.30 C 169.31 278.40 171.87 278.98 172.00 280.52 C 172.14 282.06 168.34 280.82 168.02 282.48 C 167.70 284.14 169.40 284.86 170.73 287.16 C 172.07 289.46 172.51 289.08 173.35 291.67 C 174.18 294.25 173.77 294.66 174.08 297.50 C 174.39 300.34 174.26 300.20 174.60 303.02 C 174.94 305.84 174.97 305.91 175.43 308.79 C 175.89 311.66 176.02 311.62 176.44 314.52 C 176.86 317.42 176.41 317.68 177.10 320.38 C 177.79 323.09 178.14 322.84 179.20 325.33 C 180.25 327.82 180.31 327.74 181.31 330.33 C 182.31 332.92 182.06 333.20 183.21 335.70 C 184.35 338.20 184.06 338.03 185.89 340.33 C 187.72 342.63 188.96 344.40 190.53 344.89 C 192.09 345.39 191.23 344.21 192.13 342.30 C 193.04 340.39 192.76 339.49 194.14 337.26 C 195.52 335.02 196.22 333.09 197.64 333.36 C 199.07 333.63 199.43 335.86 199.84 338.35 C 200.25 340.84 199.79 340.78 199.28 343.33 C 198.78 345.88 197.96 345.93 197.82 348.54 C 197.69 351.16 197.79 351.90 198.74 353.79 C 199.68 355.67 199.36 355.69 201.60 356.08 C 203.85 356.47 204.35 356.05 207.70 355.36 C 211.05 354.67 212.23 354.49 214.99 353.32 C 217.75 352.15 216.71 350.83 218.74 350.69 C 220.78 350.56 222.29 350.93 223.13 352.78 C 223.97 354.62 221.23 356.73 222.09 358.06 C 222.95 359.38 223.98 358.97 226.57 358.07 C 229.17 357.18 229.88 355.13 232.47 354.48 C 235.05 353.82 234.64 356.00 236.90 355.45 C 239.17 354.90 240.44 354.33 241.52 352.28 C 242.61 350.23 241.65 349.97 241.25 347.26 C 240.85 344.56 239.34 343.69 239.92 341.46 C 240.50 339.23 241.60 340.21 243.56 338.33 C 245.51 336.46 246.14 336.13 247.73 333.98 C 249.31 331.83 248.71 331.77 249.90 329.74 C 251.09 327.71 251.09 327.53 252.48 325.85 C 253.88 324.18 254.10 324.33 255.48 323.03 C 256.87 321.73 255.75 321.40 258.03 320.66 C 260.30 319.93 261.28 320.73 264.58 320.09 C 267.88 319.45 268.34 318.44 271.24 318.10 C 274.13 317.75 273.66 318.93 276.16 318.72 C 278.66 318.52 278.85 317.79 281.25 317.27 C 283.64 316.75 283.56 316.87 285.74 316.65 C 287.91 316.42 287.91 317.02 289.93 316.36 C 291.95 315.69 291.98 315.29 293.82 313.99 C 295.66 312.68 295.52 312.76 297.29 311.14 C 299.07 309.53 298.70 308.70 300.92 307.54 C 303.14 306.37 303.66 307.28 306.16 306.48 C 308.66 305.67 308.25 305.29 310.91 304.32 C 313.56 303.35 313.90 303.48 316.79 302.60 C 319.68 301.72 320.06 302.49 322.46 300.80 C 324.87 299.10 324.42 297.98 326.42 295.84 C 328.43 293.69 328.56 294.36 330.48 292.23 C 332.40 290.09 331.27 288.71 334.09 287.30 C 336.92 285.89 337.75 287.04 341.79 286.57 C 345.82 286.10 346.13 285.91 350.24 285.42 C 354.36 284.93 354.28 284.68 358.24 284.60 C 362.19 284.52 362.22 284.44 366.06 285.10 C 369.90 285.76 370.04 286.26 373.61 287.24 C 377.17 288.22 377.75 287.28 380.32 289.03 C 382.88 290.79 381.78 292.97 383.87 294.25 C 385.95 295.54 385.64 293.80 388.65 294.16 C 391.66 294.52 393.40 294.39 395.91 295.69 C 398.42 296.99 397.44 297.44 398.70 299.37 C 399.95 301.30 398.87 302.35 400.92 303.40 C 402.96 304.46 404.78 302.55 406.88 303.61 C 408.99 304.66 407.69 306.87 409.33 307.64 C 410.98 308.41 410.90 308.05 413.47 306.69 C 416.04 305.32 416.38 304.01 419.61 302.19 C 422.84 300.36 425.04 300.92 426.41 299.39 C 427.78 297.85 424.16 297.56 425.09 296.05 C 426.03 294.53 427.45 294.55 430.15 293.34 C 432.85 292.13 433.26 291.05 435.88 291.21 C 438.51 291.38 438.03 292.52 440.65 293.99 C 443.27 295.46 443.79 294.99 446.36 297.09 C 448.94 299.20 447.85 300.58 450.95 302.41 C 454.06 304.23 454.86 304.39 458.79 304.37 C 462.72 304.35 463.00 303.74 466.66 302.33 C 470.32 300.92 471.04 300.94 473.41 298.74 C 475.79 296.54 474.19 295.56 476.17 293.53 C 478.15 291.50 478.15 291.99 481.34 290.61 C 484.52 289.22 486.22 289.50 488.91 287.99 C 491.59 286.47 489.63 286.26 492.07 284.55 C 494.51 282.85 496.57 283.46 498.67 281.17 C 500.77 278.87 498.85 278.14 500.48 275.37 C 502.11 272.60 502.16 272.10 505.18 270.08 C 508.21 268.05 508.89 267.77 512.58 267.28 C 516.27 266.78 516.72 267.79 519.94 268.10 C 523.16 268.41 522.49 267.62 525.46 268.51 C 528.43 269.40 528.18 271.09 531.82 271.67 C 535.46 272.25 536.43 270.05 540.02 270.83 C 543.61 271.61 543.03 272.67 546.18 274.78 C 549.33 276.88 549.02 277.50 552.63 279.25 C 556.24 281.00 557.05 280.18 560.63 281.79 C 564.21 283.40 565.38 284.71 566.96 285.68" />
  <path fill="none" stroke="#FF9800" stroke-width="12.0" stroke-linecap="round" stroke-linejoin="round" d="M 123.00 226.97 C 124.03 226.50 124.34 225.34 127.13 225.09 C 129.91 224.84 130.82 225.40 134.14 225.99 C 137.46 226.58 137.31 226.56 140.42 227.45 C 143.53 228.33 143.50 229.59 146.59 229.53 C 149.67 229.46 149.91 227.90 152.76 227.20 C 155.61 226.50 155.43 226.20 157.99 226.72 C 160.54 227.25 161.57 227.69 162.97 229.30 C 164.38 230.90 162.11 231.43 163.59 233.14 C 165.08 234.85 166.14 235.64 168.90 236.14 C 171.66 236.64 172.99 234.14 174.64 235.14 C 176.29 236.14 174.57 237.80 175.49 240.15 C 176.41 242.49 176.39 243.39 178.32 244.52 C 180.25 245.65 180.43 244.37 183.20 244.66 C 185.98 244.95 186.68 244.97 189.43 245.66 C 192.17 246.36 192.22 247.57 194.18 247.43 C 196.15 247.29 195.09 246.33 197.29 245.12 C 199.49 243.90 200.52 242.53 202.97 242.58 C 205.42 242.62 205.22 245.00 207.09 245.30 C 208.97 245.59 208.43 243.58 210.47 243.76 C 212.51 243.94 212.50 245.31 215.25 246.02 C 218.01 246.73 218.94 245.35 221.49 246.58 C 224.04 247.82 223.03 250.04 225.45 250.95 C 227.88 251.86 230.02 251.36 231.19 250.22 C 232.37 249.08 230.94 248.28 230.15 246.39 C 229.35 244.50 230.08 244.07 228.03 242.67 C 225.97 241.27 224.75 241.83 221.91 240.79 C 219.08 239.75 219.33 239.70 216.67 238.51 C 214.01 237.33 213.77 237.41 211.26 236.05 C 208.74 234.70 209.06 234.26 206.62 233.09 C 204.18 231.92 204.16 232.72 201.49 231.36 C 198.82 230.01 197.51 229.85 195.93 227.67 C 194.35 225.49 195.67 224.86 195.17 222.63 C 194.66 220.41 193.13 220.65 193.91 218.78 C 194.69 216.91 195.82 217.25 198.28 215.14 C 200.74 213.03 200.62 211.29 203.75 210.33 C 206.88 209.37 207.20 211.35 210.80 211.29 C 214.41 211.24 214.83 210.00 218.16 210.10 C 221.49 210.20 221.42 210.76 224.12 211.70 C 226.82 212.64 226.05 213.15 228.97 213.86 C 231.89 214.57 232.41 214.19 235.79 214.54 C 239.17 214.90 240.10 215.76 242.49 215.27 C 244.89 214.78 243.41 213.87 245.38 212.57 C 247.36 211.28 247.23 210.41 250.39 210.08 C 253.55 209.76 255.30 211.97 258.03 211.28 C 260.76 210.58 258.81 208.92 261.30 207.30 C 263.79 205.69 266.23 206.58 268.00 204.81 C 269.77 203.05 269.44 202.05 268.39 200.26 C 267.35 198.47 264.52 199.08 263.81 197.64 C 263.10 196.21 263.70 195.86 265.57 194.52 C 267.44 193.19 268.30 193.34 271.28 192.31 C 274.26 191.28 273.76 191.06 277.49 190.41 C 281.22 189.75 282.85 190.91 286.21 189.69 C 289.57 188.47 288.56 187.61 290.93 185.51 C 293.30 183.42 293.24 183.56 295.69 181.32 C 298.14 179.08 298.91 179.14 300.71 176.56 C 302.50 173.97 301.54 173.67 302.86 170.98 C 304.18 168.28 305.50 168.51 306.01 165.78 C 306.51 163.05 305.31 162.93 304.87 160.05 C 304.43 157.17 303.17 156.91 304.24 154.26 C 305.31 151.61 306.97 151.84 309.14 149.45 C 311.30 147.06 310.17 146.63 312.90 144.70 C 315.64 142.77 316.48 142.66 320.08 141.74 C 323.68 140.82 323.71 140.80 327.31 141.02 C 330.90 141.25 331.12 141.61 334.46 142.63 C 337.81 143.66 337.28 144.16 340.69 145.12 C 344.10 146.07 344.53 146.20 348.11 146.45 C 351.70 146.70 351.55 146.40 355.04 146.10 C 358.53 145.81 359.03 144.84 362.07 145.28 C 365.12 145.71 364.53 146.79 367.21 147.86 C 369.89 148.93 369.73 148.87 372.80 149.55 C 375.87 150.23 376.99 149.06 379.49 150.59 C 381.99 152.11 381.89 153.35 382.81 155.65 C 383.72 157.95 384.24 157.94 383.15 159.79 C 382.07 161.63 379.86 161.11 378.46 163.04 C 377.06 164.98 378.57 165.17 377.55 167.53 C 376.54 169.88 375.86 170.08 374.40 172.47 C 372.94 174.86 373.43 174.78 371.73 177.09 C 370.04 179.39 367.67 179.31 367.62 181.70 C 367.57 184.09 370.87 184.34 371.53 186.65 C 372.18 188.97 371.11 188.68 370.25 190.96 C 369.39 193.23 369.16 193.65 368.08 195.76 C 366.99 197.86 366.27 197.57 365.90 199.38 C 365.54 201.19 366.40 200.64 366.61 203.00 C 366.82 205.36 366.31 205.96 366.75 208.81 C 367.18 211.67 368.16 211.59 368.34 214.43 C 368.52 217.28 368.39 217.33 367.47 220.19 C 366.56 223.05 365.71 222.93 364.68 225.88 C 363.65 228.84 361.65 230.46 363.34 232.02 C 365.04 233.59 367.87 232.55 371.47 232.14 C 375.07 231.73 374.48 231.12 377.75 230.37 C 381.02 229.62 381.44 230.31 384.54 229.15 C 387.63 227.99 386.85 226.11 390.14 225.73 C 393.44 225.34 393.78 226.71 397.71 227.62 C 401.63 228.52 401.93 229.17 405.84 229.34 C 409.76 229.51 409.57 228.64 413.37 228.29 C 417.16 227.94 417.29 228.11 421.01 227.94 C 424.72 227.78 424.53 227.60 428.22 227.63 C 431.92 227.67 432.74 228.55 435.78 228.08 C 438.83 227.61 438.36 227.45 440.41 225.74 C 442.46 224.04 441.60 223.15 443.98 221.27 C 446.36 219.38 447.19 219.90 449.93 218.21 C 452.67 216.52 452.24 215.95 454.94 214.51 C 457.65 213.07 458.13 214.12 460.73 212.45 C 463.34 210.79 463.00 209.88 465.36 207.86 C 467.73 205.85 467.44 206.02 470.20 204.41 C 472.96 202.80 473.71 203.35 476.39 201.44 C 479.08 199.53 478.06 198.79 480.94 196.78 C 483.81 194.77 484.18 194.60 487.90 193.42 C 491.63 192.23 492.35 193.26 495.84 192.04 C 499.33 190.82 498.47 190.09 501.87 188.55 C 505.28 187.00 506.26 186.83 509.45 185.86 C 512.65 184.90 513.35 184.98 514.65 184.68" />
  <path fill="none" stroke="#00BCD4" stroke-width="12.0" stroke-linecap="round" stroke-linejoin="round" d="M 659.84 126.27 C 658.20 125.70 655.52 125.23 653.28 124.00 C 651.05 122.77 652.05 122.66 650.90 121.35 C 649.76 120.05 650.02 119.92 648.71 118.77 C 647.41 117.62 645.88 118.46 645.68 116.76 C 645.48 115.05 648.24 114.16 647.91 111.96 C 647.58 109.77 644.76 109.84 644.38 107.97 C 643.99 106.11 646.53 106.48 646.36 104.50 C 646.19 102.51 645.89 101.90 643.69 100.04 C 641.49 98.18 639.68 98.96 637.54 97.04 C 635.40 95.13 635.78 94.71 635.14 92.40 C 634.51 90.09 636.12 90.01 635.00 87.81 C 633.87 85.61 633.49 85.23 630.64 83.59 C 627.79 81.96 627.34 81.65 623.60 81.25 C 619.85 80.86 619.22 82.85 615.66 82.01 C 612.10 81.17 611.82 80.07 609.36 77.88 C 606.89 75.69 605.15 74.34 605.79 73.27 C 606.44 72.19 608.61 73.71 611.93 73.59 C 615.25 73.46 615.28 73.26 619.08 72.75 C 622.87 72.24 623.35 72.32 627.11 71.54 C 630.87 70.75 630.81 70.83 634.12 69.61 C 637.44 68.39 636.63 67.71 640.37 66.65 C 644.10 65.59 645.29 65.82 649.06 65.38 C 652.83 64.94 651.73 64.60 655.44 64.88 C 659.14 65.16 659.40 66.19 663.88 66.49 C 668.37 66.79 669.15 66.18 673.38 66.09 C 677.61 66.00 677.61 67.45 680.80 66.13 C 684.00 64.80 683.11 63.21 686.17 60.78 C 689.22 58.35 689.93 58.32 693.02 56.41 C 696.11 54.50 695.35 54.74 698.52 53.13 C 701.68 51.52 701.93 51.31 705.68 49.95 C 709.43 48.59 709.19 48.43 713.52 47.68 C 717.84 46.93 718.71 47.69 722.97 46.96 C 727.24 46.22 727.12 46.37 730.57 44.74 C 734.03 43.11 734.94 41.61 736.79 40.42 C 738.64 39.24 737.69 40.11 737.99 40.00" />
  <path fill="none" stroke="#4CAF50" stroke-width="12.0" stroke-linecap="round" stroke-linejoin="round" d="M 60.58 261.53 C 59.75 261.59 58.73 260.56 57.25 261.75 C 55.77 262.93 56.77 264.37 54.66 266.26 C 52.56 268.14 49.97 267.13 48.82 269.29 C 47.67 271.45 48.95 272.49 50.08 274.89 C 51.21 277.30 51.47 277.48 53.33 278.93 C 55.19 280.37 55.25 280.67 57.51 280.67 C 59.77 280.68 59.85 279.58 62.36 278.93 C 64.87 278.29 64.91 278.43 67.55 278.10 C 70.19 277.77 70.02 277.68 72.93 277.62 C 75.84 277.57 75.91 277.66 79.19 277.89 C 82.47 278.12 82.62 278.35 86.05 278.53 C 89.47 278.71 89.81 278.64 92.90 278.60 C 95.99 278.56 96.82 277.53 98.40 278.37 C 99.98 279.22 98.13 280.45 99.21 281.99 C 100.29 283.53 100.46 284.23 102.70 284.53 C 104.94 284.84 107.08 282.38 108.17 283.20 C 109.26 284.01 106.85 287.83 107.06 287.80 C 107.27 287.76 107.07 283.91 109.01 283.07 C 110.96 282.24 112.19 283.61 114.82 284.46 C 117.46 285.31 116.72 285.82 119.55 286.47 C 122.39 287.12 123.32 286.04 126.17 287.08 C 129.03 288.12 128.61 288.98 130.97 290.63 C 133.34 292.28 133.41 292.03 135.64 293.68 C 137.86 295.33 137.22 295.52 139.88 297.23 C 142.53 298.93 143.96 298.45 146.25 300.49 C 148.55 302.53 147.17 303.27 149.04 305.38 C 150.91 307.50 151.70 307.12 153.74 308.96 C 155.78 310.79 155.52 310.54 157.21 312.72 C 158.90 314.91 158.80 315.39 160.51 317.69 C 162.22 320.00 162.73 319.84 164.04 321.95 C 165.34 324.07 164.54 324.09 165.73 326.14 C 166.91 328.20 167.65 327.91 168.78 330.17 C 169.90 332.42 169.29 332.53 170.23 335.15 C 171.16 337.78 171.99 337.81 172.51 340.68 C 173.03 343.55 172.26 343.60 172.31 346.64 C 172.35 349.68 172.80 349.89 172.70 352.83 C 172.60 355.76 171.96 355.59 171.91 358.39 C 171.86 361.20 172.47 361.29 172.49 364.03 C 172.52 366.77 172.03 366.71 172.02 369.35 C 172.00 371.99 171.59 372.03 172.44 374.59 C 173.30 377.15 174.51 377.15 175.45 379.59 C 176.38 382.03 176.89 382.75 176.19 384.35 C 175.48 385.95 175.29 385.06 172.63 385.98 C 169.97 386.90 166.84 386.29 165.55 388.03 C 164.27 389.76 166.58 390.59 167.48 392.93 C 168.37 395.28 169.49 395.58 169.13 397.41 C 168.77 399.24 166.75 398.65 166.06 400.25 C 165.36 401.85 166.13 402.05 166.33 403.81 C 166.54 405.57 166.58 405.04 166.87 407.29 C 167.15 409.54 166.71 410.28 167.47 412.81 C 168.24 415.34 169.96 415.08 169.93 417.40 C 169.90 419.73 167.63 419.71 167.35 422.10 C 167.06 424.49 168.02 424.42 168.79 426.96 C 169.56 429.49 171.16 430.16 170.44 432.23 C 169.72 434.30 166.38 433.01 165.91 435.22 C 165.45 437.43 168.46 438.46 168.58 441.06 C 168.69 443.66 168.64 443.99 166.37 445.61 C 164.11 447.24 162.76 446.64 159.52 447.56 C 156.28 448.48 155.62 447.47 153.42 449.29 C 151.23 451.10 151.78 452.12 150.74 454.82 C 149.70 457.52 150.32 457.83 149.26 460.09 C 148.21 462.34 147.01 461.54 146.52 463.84 C 146.04 466.14 146.14 467.27 147.32 469.30 C 148.50 471.34 149.80 469.99 151.25 471.98 C 152.69 473.97 152.71 474.63 153.10 477.27 C 153.49 479.91 153.21 479.97 152.81 482.55 C 152.42 485.13 151.96 484.91 151.53 487.59 C 151.10 490.27 151.20 490.34 151.09 493.26 C 150.99 496.19 151.43 496.63 151.11 499.28 C 150.79 501.93 150.14 502.72 149.82 503.86" />
  <path fill="none" stroke="#009688" stroke-width="12.0" stroke-linecap="round" stroke-linejoin="round" d="M 143.77 283.64 C 144.45 284.69 144.74 285.67 146.47 287.85 C 148.19 290.04 148.36 290.15 150.66 292.38 C 152.96 294.60 153.52 294.44 155.66 296.75 C 157.81 299.07 157.29 299.34 159.25 301.62 C 161.21 303.91 161.64 303.56 163.50 305.89 C 165.37 308.21 165.46 308.41 166.71 310.93 C 167.96 313.44 167.59 313.49 168.49 315.96 C 169.39 318.43 169.45 318.37 170.32 320.81 C 171.20 323.24 171.17 323.14 171.99 325.70 C 172.81 328.25 172.94 328.54 173.61 331.01 C 174.28 333.49 174.09 333.16 174.67 335.60 C 175.24 338.03 175.22 338.26 175.91 340.75 C 176.59 343.23 177.36 342.92 177.41 345.53 C 177.47 348.14 176.35 348.50 176.13 351.17 C 175.92 353.84 176.18 353.61 176.55 356.22 C 176.92 358.84 176.72 358.98 177.61 361.63 C 178.51 364.28 179.10 364.50 180.14 366.84 C 181.17 369.17 180.06 368.90 181.75 370.95 C 183.45 373.01 184.17 373.25 186.91 375.05 C 189.66 376.86 189.90 377.32 192.74 378.18 C 195.58 379.04 196.57 377.17 198.27 378.49 C 199.97 379.81 199.76 381.05 199.55 383.45 C 199.33 385.85 198.44 385.82 197.41 388.10 C 196.39 390.37 196.67 390.04 195.44 392.56 C 194.21 395.08 192.65 395.56 192.50 398.17 C 192.36 400.79 193.62 400.62 194.86 403.03 C 196.10 405.45 195.79 405.54 197.45 407.83 C 199.11 410.13 199.81 410.12 201.49 412.20 C 203.17 414.29 202.53 414.22 204.17 416.16 C 205.81 418.11 206.47 418.32 208.05 419.98 C 209.64 421.65 210.77 421.05 210.51 422.81 C 210.25 424.57 209.02 425.06 207.02 427.01 C 205.01 428.97 203.85 428.87 202.49 430.64 C 201.13 432.41 203.23 432.77 201.59 434.09 C 199.95 435.40 198.10 434.00 195.94 435.89 C 193.77 437.77 192.87 440.26 192.93 441.62 C 193.00 442.98 194.20 440.56 196.19 441.34 C 198.19 442.12 199.35 442.60 200.90 444.75 C 202.45 446.89 200.36 448.73 202.40 449.92 C 204.44 451.12 205.65 449.59 209.06 449.55 C 212.46 449.50 212.70 450.14 216.02 449.73 C 219.34 449.32 219.21 448.59 222.34 447.92 C 225.48 447.24 228.24 446.26 228.56 447.03 C 228.89 447.80 225.04 448.80 223.64 451.00 C 222.24 453.20 223.52 453.11 222.96 455.85 C 222.39 458.58 221.88 458.92 221.37 461.95 C 220.86 464.97 222.25 465.39 220.90 467.93 C 219.55 470.48 217.40 469.60 215.98 472.13 C 214.56 474.67 214.33 476.62 215.21 478.07 C 216.09 479.52 217.29 478.66 219.50 477.92 C 221.71 477.19 221.57 475.69 224.05 475.11 C 226.54 474.54 226.76 474.74 229.44 475.63 C 232.12 476.52 232.14 478.37 234.76 478.67 C 237.39 478.98 237.61 478.20 239.94 476.86 C 242.27 475.51 241.96 475.00 244.09 473.29 C 246.22 471.58 245.56 470.37 248.45 470.02 C 251.35 469.67 252.68 470.61 255.67 471.90 C 258.67 473.19 258.09 473.10 260.43 475.18 C 262.77 477.26 262.44 477.92 265.04 480.23 C 267.64 482.54 269.33 481.84 270.83 484.42 C 272.33 487.01 271.04 487.47 271.05 490.59 C 271.06 493.70 269.88 494.04 270.86 496.87 C 271.85 499.70 272.60 499.74 274.98 501.90 C 277.36 504.05 278.52 503.58 280.39 505.49 C 282.25 507.40 281.22 507.52 282.44 509.53 C 283.66 511.54 284.33 511.74 285.28 513.53 C 286.23 515.33 285.02 514.64 286.25 516.70 C 287.48 518.76 289.35 519.01 290.21 521.77 C 291.07 524.54 289.91 524.69 289.70 527.76 C 289.48 530.83 288.74 531.15 289.35 534.06 C 289.97 536.96 291.77 536.60 292.14 539.38 C 292.52 542.15 290.96 542.28 290.86 545.17 C 290.76 548.06 291.49 548.01 291.74 550.95 C 292.00 553.90 292.49 554.45 291.88 556.95 C 291.28 559.45 291.27 559.48 289.33 560.97 C 287.38 562.46 286.58 561.73 284.11 562.90 C 281.64 564.07 281.81 564.14 279.45 565.63 C 277.08 567.12 274.94 567.07 274.65 568.87 C 274.36 570.67 277.34 570.40 278.29 572.83 C 279.23 575.25 277.72 575.97 278.44 578.56 C 279.16 581.14 280.38 581.77 281.17 583.17 C 281.96 584.57 280.27 582.91 281.60 584.15 C 282.93 585.39 283.80 586.75 286.49 588.13 C 289.19 589.51 290.44 589.22 292.39 589.68 C 294.34 590.15 293.81 589.92 294.28 590.00" />
  </g>
</svg>
