<?xml version="1.0" encoding="UTF-8"?>
<svg xmlns="http://www.w3.org/2000/svg" viewBox="0 0 1200 800" width="1200" height="800">
  <title>松沧逐浪·从长白到瀚海</title>
  <g id="rivers">
  <path d="M 496.01 779.93 C 496.01 779.93 465.08 773.88 454.66 769.73 C 444.24 765.59 439.06 759.89 433.50 755.08 C 427.93 750.27 426.19 744.51 421.29 740.89 C 416.39 737.27 407.84 737.85 404.08 733.36 C 400.32 728.87 404.46 717.30 398.72 713.95 C 392.97 710.60 373.26 717.84 369.61 713.26 C 365.96 708.68 372.32 694.59 376.82 686.45 C 381.32 678.30 394.56 672.22 396.61 664.40 C 398.65 656.57 395.06 647.09 389.08 639.49 C 383.10 631.89 363.52 625.72 360.72 618.80 C 357.91 611.87 368.56 604.49 372.27 597.95 C 375.98 591.41 386.27 586.14 382.98 579.57 C 379.68 573.00 361.29 565.48 352.49 558.53 C 343.69 551.59 338.79 543.90 330.18 537.89 C 321.57 531.89 308.03 528.89 300.80 522.50 C 293.57 516.11 288.91 507.81 286.77 499.56 C 284.64 491.31 288.05 481.87 287.98 473.02 C 287.91 464.17 289.97 454.48 286.36 446.45 C 282.74 438.42 273.96 431.91 266.29 424.85 C 258.62 417.80 251.45 408.95 240.33 404.11 C 229.20 399.27 212.10 399.91 199.53 395.80 C 186.97 391.70 177.37 381.00 164.92 379.48 C 152.48 377.95 137.90 386.94 124.86 386.66 C 111.83 386.37 98.49 383.24 86.71 377.77 C 74.94 372.31 64.15 361.66 54.22 353.85 C 44.29 346.04 30.03 338.06 27.11 330.93 C 24.18 323.80 29.83 314.88 36.67 311.05 C 43.52 307.23 57.07 306.82 68.20 307.96 C 79.32 309.11 91.63 317.83 103.40 317.92 C 115.17 318.01 125.48 310.78 138.82 308.48 C 152.15 306.19 170.71 306.84 183.43 304.12 C 196.16 301.41 203.69 296.14 215.17 292.21 C 226.64 288.28 239.34 284.02 252.29 280.55 C 265.24 277.09 280.78 275.72 292.89 271.41 C 305.00 267.10 312.58 260.40 324.97 254.71 C 337.35 249.02 351.78 238.38 367.18 237.28 C 382.58 236.19 404.62 247.71 417.35 248.13 C 430.08 248.55 432.89 239.27 443.55 239.78 C 454.21 240.30 466.79 248.93 481.32 251.23 C 495.84 253.54 514.23 253.71 530.70 253.63 C 547.16 253.54 563.70 252.03 580.11 250.72 C 596.53 249.41 615.18 245.34 629.19 245.76 C 643.21 246.18 652.05 255.29 664.20 253.25 C 676.35 251.21 691.84 241.82 702.09 233.51 C 712.34 225.21 716.98 212.92 725.69 203.40 C 734.41 193.89 743.18 184.45 754.41 176.43 C 765.64 168.42 782.32 161.55 793.08 155.32 C 803.85 149.08 806.93 142.82 819.01 139.02 C 831.10 135.21 852.72 137.70 865.60 132.50 C 878.49 127.31 885.48 115.20 896.31 107.84 C 907.15 100.48 916.54 92.32 930.62 88.34 C 944.71 84.36 964.32 85.49 980.82 83.96 C 997.32 82.43 1012.61 80.22 1029.63 79.15 C 1046.66 78.09 1068.87 80.39 1082.97 77.56 C 1097.07 74.74 1101.90 67.98 1114.24 62.21 C 1126.57 56.44 1146.01 49.99 1156.97 42.96 C 1167.93 35.93 1180.00 20.00 1180.00 20.00" fill="none" stroke="#4A90E2" stroke-width="16" stroke-linecap="round" stroke-linejoin="round"/>
  </g>
</svg>
