<?xml version="1.0" encoding="UTF-8"?>
<svg xmlns="http://www.w3.org/2000/svg" viewBox="0 0 1200 800" width="1200" height="800">
  <title>松沧逐浪·从长白到瀚海</title>
  <g id="rivers">
  <path d="M 496.01 779.93 C 496.01 779.93 448.82 762.84 433.50 755.08 C 418.17 747.32 414.73 740.33 404.08 733.36 C 393.43 726.39 370.84 724.75 369.61 713.26 C 368.37 701.78 398.10 680.19 396.65 664.45 C 395.19 648.71 363.14 633.00 360.88 618.84 C 358.63 604.68 388.19 592.98 383.12 579.50 C 378.04 566.02 346.46 551.27 330.41 537.98 C 314.36 524.70 294.10 515.03 286.81 499.79 C 279.51 484.56 294.44 462.49 286.66 446.58 C 278.88 430.66 260.32 415.48 240.11 404.30 C 219.89 393.11 190.92 383.83 165.38 379.46 C 139.84 375.10 109.86 386.14 86.85 378.11 C 63.85 370.09 30.56 343.02 27.35 331.31 C 24.13 319.60 49.09 311.66 67.56 307.86 C 86.03 304.06 113.66 311.09 138.16 308.52 C 162.66 305.95 188.89 298.63 214.56 292.44 C 240.22 286.24 266.84 280.51 292.15 271.35 C 317.45 262.19 341.11 242.65 366.39 237.48 C 391.67 232.31 416.58 237.59 443.83 240.34 C 471.07 243.10 499.16 253.13 529.87 254.02 C 560.58 254.90 599.52 248.97 628.07 245.64 C 656.63 242.31 680.30 245.47 701.20 234.03 C 722.11 222.60 733.86 192.72 753.50 177.03 C 773.15 161.34 795.52 151.39 819.07 139.88 C 842.61 128.37 868.09 117.35 894.79 107.97 C 921.49 98.59 948.12 88.79 979.28 83.60 C 1010.45 78.40 1052.46 83.50 1081.78 76.79 C 1111.11 70.08 1138.88 52.81 1155.25 43.34 C 1171.62 33.88 1180.00 20.00 1180.00 20.00" fill="none" stroke="#4A90E2" stroke-width="16.0" stroke-linecap="round" stroke-linejoin="round"/>
  </g>
</svg>
