<?xml version="1.0" encoding="UTF-8"?>
<svg xmlns="http://www.w3.org/2000/svg" viewBox="0 0 1200 800" width="1200" height="800">
  <title>万里长江 · 乘风远征</title>
  <g id="rivers">
  <path d="M 22.13 134.68 C 22.13 134.68 19.33 78.23 24.17 67.09 C 29.01 55.95 41.53 66.46 51.19 67.84 C 60.84 69.21 71.20 75.23 82.09 75.34 C 92.98 75.44 110.51 69.57 116.51 68.45 C 122.51 67.33 118.08 68.60 118.08 68.60" fill="none" stroke="#e6194b" stroke-width="16.0" stroke-linecap="round" stroke-linejoin="round"/>
  <path d="M 118.08 68.60 C 118.08 68.60 133.79 35.99 142.67 31.12 C 151.55 26.24 162.82 32.87 171.38 39.37 C 179.93 45.86 188.24 59.97 194.01 70.09 C 199.79 80.21 206.02 100.07 206.02 100.07" fill="none" stroke="#3cb44b" stroke-width="16.0" stroke-linecap="round" stroke-linejoin="round"/>
  <path d="M 206.02 100.07 C 206.02 100.07 215.11 104.56 219.81 111.21 C 224.51 117.87 229.24 130.49 234.21 139.99 C 239.18 149.49 245.70 159.12 249.64 168.23 C 253.59 177.34 257.91 194.66 257.91 194.66" fill="none" stroke="#ffe119" stroke-width="16.0" stroke-linecap="round" stroke-linejoin="round"/>
  <path d="M 257.91 194.66 C 257.91 194.66 278.49 211.85 285.06 225.73 C 291.63 239.62 293.93 262.77 297.35 277.99 C 300.76 293.20 304.36 308.14 305.54 317.01 C 306.72 325.88 304.42 331.21 304.42 331.21" fill="none" stroke="#4363d8" stroke-width="16.0" stroke-linecap="round" stroke-linejoin="round"/>
  <path d="M 304.42 331.21 C 304.42 331.21 312.38 368.12 314.35 388.98 C 316.33 409.84 315.14 433.85 316.28 456.39 C 317.42 478.93 320.50 512.00 321.19 524.20 C 321.88 536.39 320.41 529.55 320.41 529.55" fill="none" stroke="#f58231" stroke-width="16.0" stroke-linecap="round" stroke-linejoin="round"/>
  <path d="M 320.41 529.55 C 320.41 529.55 327.42 568.09 330.42 588.25 C 333.41 608.41 334.81 633.00 338.38 650.53 C 341.95 668.07 351.82 693.46 351.82 693.46" fill="none" stroke="#911eb4" stroke-width="16.0" stroke-linecap="round" stroke-linejoin="round"/>
  <path d="M 351.82 693.46 C 351.82 693.46 356.57 654.61 360.04 648.24 C 363.51 641.87 370.82 649.16 372.64 655.22 C 374.46 661.28 370.94 684.60 370.94 684.60" fill="none" stroke="#46f0f0" stroke-width="16.0" stroke-linecap="round" stroke-linejoin="round"/>
  <path d="M 370.94 684.60 C 370.94 684.60 366.60 734.71 369.78 746.35 C 372.97 758.00 382.66 757.73 390.07 754.46 C 397.48 751.19 409.06 723.85 414.23 726.72 C 419.40 729.59 416.00 767.90 421.08 771.67 C 426.16 775.44 440.31 753.70 444.70 749.34 C 449.08 744.99 447.40 745.55 447.40 745.55" fill="none" stroke="#f032e6" stroke-width="16.0" stroke-linecap="round" stroke-linejoin="round"/>
  <path d="M 447.40 745.55 C 447.40 745.55 464.04 745.28 466.12 731.82 C 468.19 718.37 459.83 677.71 459.85 664.84 C 459.87 651.98 466.23 654.62 466.23 654.62" fill="none" stroke="#bcf60c" stroke-width="16.0" stroke-linecap="round" stroke-linejoin="round"/>
  <path d="M 466.23 654.62 C 466.23 654.62 479.58 619.83 484.52 605.69 C 489.47 591.55 493.89 579.55 495.88 569.80 C 497.87 560.05 496.46 547.19 496.46 547.19" fill="none" stroke="#fabebe" stroke-width="16.0" stroke-linecap="round" stroke-linejoin="round"/>
  <path d="M 496.46 547.19 C 496.46 547.19 515.47 539.34 524.21 537.99 C 532.95 536.64 544.10 540.54 548.89 539.09 C 553.68 537.64 552.97 529.30 552.97 529.30" fill="none" stroke="#008080" stroke-width="16.0" stroke-linecap="round" stroke-linejoin="round"/>
  <path d="M 552.97 529.30 C 552.97 529.30 564.36 529.01 570.25 522.98 C 576.15 516.94 583.58 502.54 588.33 493.12 C 593.08 483.69 598.76 466.42 598.76 466.42" fill="none" stroke="#e6beff" stroke-width="16.0" stroke-linecap="round" stroke-linejoin="round"/>
  <path d="M 598.76 466.42 C 598.76 466.42 615.69 461.19 623.66 453.28 C 631.63 445.37 639.77 433.22 646.60 418.97 C 653.43 404.71 657.72 379.35 664.65 367.76 C 671.58 356.16 688.16 349.40 688.16 349.40" fill="none" stroke="#9a6324" stroke-width="16.0" stroke-linecap="round" stroke-linejoin="round"/>
  <path d="M 688.16 349.40 C 688.16 349.40 711.79 341.80 723.42 342.84 C 735.05 343.89 748.66 346.36 757.94 355.66 C 767.21 364.97 772.42 390.10 779.07 398.69 C 785.72 407.27 797.85 407.19 797.85 407.19" fill="none" stroke="#fffac8" stroke-width="16.0" stroke-linecap="round" stroke-linejoin="round"/>
  <path d="M 797.85 407.19 C 797.85 407.19 805.68 440.44 811.14 449.80 C 816.60 459.15 830.62 463.30 830.62 463.30" fill="none" stroke="#800000" stroke-width="16.0" stroke-linecap="round" stroke-linejoin="round"/>
  <path d="M 830.62 463.30 C 830.62 463.30 842.51 461.44 848.95 453.14 C 855.39 444.85 863.34 426.95 869.28 413.53 C 875.23 400.11 877.72 374.49 884.62 372.61 C 891.52 370.73 904.33 391.61 910.68 402.27 C 917.03 412.94 922.70 436.58 922.70 436.58" fill="none" stroke="#aaffc3" stroke-width="16.0" stroke-linecap="round" stroke-linejoin="round"/>
  <path d="M 922.70 436.58 C 922.70 436.58 946.71 454.67 955.78 447.84 C 964.86 441.00 968.93 409.53 977.15 395.56 C 985.37 381.60 998.22 374.68 1005.10 364.07 C 1011.98 353.46 1018.43 331.92 1018.43 331.92" fill="none" stroke="#808000" stroke-width="16.0" stroke-linecap="round" stroke-linejoin="round"/>
  <path d="M 1018.43 331.92 C 1018.43 331.92 1028.52 290.90 1036.37 275.73 C 1044.22 260.56 1056.52 244.38 1065.52 240.89 C 1074.52 237.41 1085.88 251.77 1090.36 254.82 C 1094.84 257.87 1092.41 259.21 1092.41 259.21" fill="none" stroke="#ffd8b1" stroke-width="16.0" stroke-linecap="round" stroke-linejoin="round"/>
  <path d="M 1092.41 259.21 C 1092.41 259.21 1115.62 262.81 1125.35 271.26 C 1135.07 279.70 1150.76 309.88 1150.76 309.88" fill="none" stroke="#000075" stroke-width="16.0" stroke-linecap="round" stroke-linejoin="round"/>
  <path d="M 1150.76 309.88 L 1180.00 345.19" fill="none" stroke="#808080" stroke-width="16.0" stroke-linecap="round" stroke-linejoin="round"/>
  </g>
</svg>
