<?xml version="1.0" encoding="UTF-8"?>
<svg xmlns="http://www.w3.org/2000/svg" viewBox="0 0 1200 800" width="1200" height="800">
  <title>万里长江 · 乘风远征</title>
  <g id="rivers">
  <path d="M 22.13 134.68 C 22.13 134.68 20.35 105.65 20.93 92.84 C 21.51 80.02 21.47 62.89 25.62 57.80 C 29.77 52.71 39.63 60.71 45.82 62.27 C 52.01 63.83 56.72 64.99 62.77 67.16 C 68.81 69.34 75.72 75.45 82.09 75.34 C 88.46 75.22 94.06 68.20 101.00 66.48 C 107.95 64.76 117.94 69.96 123.75 65.01 C 129.56 60.05 131.17 44.17 135.85 36.75 C 140.53 29.33 146.04 20.54 151.85 20.51 C 157.66 20.48 165.15 31.26 170.73 36.57 C 176.31 41.89 180.94 45.38 185.31 52.40 C 189.68 59.41 193.10 70.40 196.94 78.65 C 200.77 86.89 205.17 96.85 208.32 101.88 C 211.47 106.91 212.92 105.84 215.86 108.82 C 218.80 111.81 223.09 115.05 225.97 119.80 C 228.85 124.55 230.34 133.38 233.16 137.31 C 235.98 141.23 239.77 137.44 242.88 143.37 C 245.99 149.31 248.82 163.13 251.82 172.92 C 254.83 182.71 256.42 194.61 260.92 202.11 C 265.42 209.61 273.92 210.77 278.82 217.91 C 283.73 225.06 287.44 235.33 290.38 244.97 C 293.32 254.62 293.38 265.88 296.46 275.79 C 299.53 285.70 307.89 297.02 308.82 304.42 C 309.76 311.82 302.10 311.89 302.06 320.20 C 302.03 328.51 306.54 343.02 308.60 354.26 C 310.65 365.51 312.88 375.36 314.41 387.66 C 315.94 399.97 317.15 414.68 317.79 428.11 C 318.42 441.53 317.72 454.86 318.21 468.23 C 318.70 481.59 320.03 494.66 320.73 508.29 C 321.43 521.92 321.15 537.30 322.41 550.00 C 323.66 562.71 326.59 572.53 328.26 584.52 C 329.93 596.52 330.54 609.97 332.42 621.98 C 334.29 633.99 336.45 645.48 339.50 656.59 C 342.55 667.70 348.02 685.31 350.70 688.65 C 353.39 691.99 353.68 684.53 355.63 676.63 C 357.57 668.72 360.01 647.58 362.37 641.24 C 364.72 634.91 368.29 632.89 369.76 638.60 C 371.22 644.31 371.60 663.64 371.18 675.50 C 370.77 687.36 367.55 697.79 367.26 709.76 C 366.98 721.73 367.28 738.76 369.48 747.31 C 371.67 755.87 375.90 761.17 380.43 761.09 C 384.96 761.00 391.93 752.78 396.67 746.81 C 401.41 740.85 404.57 727.11 408.85 725.32 C 413.13 723.52 420.31 728.09 422.37 736.03 C 424.43 743.97 419.32 768.33 421.21 772.95 C 423.10 777.56 428.77 767.71 433.72 763.70 C 438.67 759.69 446.11 751.69 450.89 748.89 C 455.67 746.10 460.24 753.16 462.40 746.94 C 464.57 740.72 464.18 724.32 463.88 711.58 C 463.59 698.83 459.49 681.41 460.66 670.48 C 461.82 659.55 467.19 654.97 470.89 645.99 C 474.58 637.01 480.64 626.23 482.85 616.60 C 485.05 606.98 481.98 596.20 484.13 588.25 C 486.28 580.30 492.79 575.30 495.74 568.92 C 498.70 562.54 497.95 553.66 501.86 549.99 C 505.78 546.31 513.46 549.42 519.23 546.88 C 524.99 544.34 531.46 536.12 536.44 534.74 C 541.41 533.36 544.90 540.42 549.08 538.61 C 553.26 536.79 557.97 526.48 561.52 523.86 C 565.07 521.25 567.30 526.38 570.38 522.91 C 573.46 519.44 576.28 509.66 580.00 503.03 C 583.71 496.41 589.05 489.18 592.67 483.18 C 596.29 477.18 597.89 472.32 601.72 467.05 C 605.55 461.77 611.18 455.63 615.67 451.54 C 620.16 447.44 623.97 447.16 628.67 442.48 C 633.37 437.81 639.60 431.05 643.87 423.49 C 648.14 415.93 651.03 407.65 654.29 397.14 C 657.54 386.64 658.65 368.49 663.41 360.46 C 668.18 352.42 675.97 352.08 682.88 348.94 C 689.79 345.80 697.73 342.69 704.86 341.62 C 711.99 340.55 718.63 342.00 725.66 342.52 C 732.68 343.03 740.26 341.72 747.01 344.71 C 753.75 347.69 761.30 352.23 766.13 360.44 C 770.96 368.64 772.07 388.12 776.00 393.95 C 779.92 399.77 784.49 392.53 789.67 395.39 C 794.84 398.25 803.45 403.21 807.07 411.09 C 810.69 418.98 808.73 435.69 811.37 442.70 C 814.02 449.71 819.48 447.49 822.93 453.15 C 826.39 458.82 828.63 474.55 832.10 476.69 C 835.57 478.83 839.09 472.62 843.74 466.00 C 848.40 459.39 855.71 445.63 860.04 436.98 C 864.37 428.33 867.11 420.39 869.74 414.10 C 872.37 407.80 872.30 405.78 875.83 399.21 C 879.37 392.64 886.22 375.32 890.95 374.68 C 895.69 374.03 899.63 387.58 904.26 395.35 C 908.90 403.11 913.77 412.90 918.76 421.30 C 923.76 429.69 928.21 441.11 934.23 445.73 C 940.24 450.36 948.37 452.62 954.86 449.05 C 961.34 445.48 968.60 434.40 973.14 424.30 C 977.68 414.20 978.09 397.75 982.10 388.45 C 986.10 379.15 992.62 376.76 997.16 368.48 C 1001.70 360.20 1004.73 346.57 1009.33 338.78 C 1013.93 331.00 1020.79 330.36 1024.78 321.76 C 1028.77 313.17 1029.80 299.28 1033.25 287.20 C 1036.71 275.12 1040.00 256.92 1045.51 249.30 C 1051.02 241.67 1059.92 244.62 1066.33 241.44 C 1072.73 238.27 1078.76 226.58 1083.96 230.23 C 1089.16 233.88 1091.65 258.74 1097.55 263.32 C 1103.46 267.90 1112.94 254.17 1119.37 257.72 C 1125.81 261.26 1130.36 275.23 1136.14 284.56 C 1141.93 293.89 1147.61 305.76 1154.09 313.69 C 1160.57 321.62 1170.68 326.90 1175.00 332.15 C 1179.32 337.40 1180.00 345.19 1180.00 345.19" fill="none" stroke="#2E6195" stroke-width="16.0" stroke-linecap="round" stroke-linejoin="round"/>
  </g>
</svg>
