<?xml version="1.0" encoding="UTF-8"?>
<svg xmlns="http://www.w3.org/2000/svg" viewBox="0 0 1200 800" width="1200" height="800">
  <title>九曲黄河 · 踏歌而行</title>
  <g id="rivers">
  <path d="M 20.00 612.82 C 20.00 612.82 29.29 603.36 36.14 602.31 C 43.00 601.25 52.93 603.61 61.15 606.47 C 69.38 609.33 77.89 616.72 85.48 619.49 C 93.07 622.26 100.32 624.49 106.68 623.09 C 113.04 621.69 117.76 609.65 123.63 611.10 C 129.49 612.55 138.14 622.56 141.87 631.78 C 145.60 641.00 142.06 661.15 146.01 666.42 C 149.96 671.69 160.74 658.53 165.58 663.40 C 170.41 668.27 171.94 684.04 175.00 695.65 C 178.06 707.27 179.41 726.31 183.93 733.10 C 188.46 739.90 195.74 733.91 202.16 736.44 C 208.58 738.96 217.16 748.17 222.46 748.25 C 227.76 748.33 228.87 741.17 233.96 736.90 C 239.04 732.62 247.10 722.36 252.98 722.61 C 258.85 722.87 264.47 736.49 269.20 738.44 C 273.92 740.39 275.94 733.18 281.33 734.31 C 286.73 735.45 295.52 739.72 301.57 745.25 C 307.62 750.78 311.75 762.88 317.63 767.50 C 323.50 772.12 333.56 776.61 336.84 772.96 C 340.12 769.30 338.89 755.02 337.30 745.59 C 335.72 736.16 332.36 723.64 327.34 716.36 C 322.32 709.09 314.03 707.22 307.17 701.94 C 300.30 696.67 292.28 691.82 286.16 684.71 C 280.05 677.60 276.14 666.27 270.49 659.26 C 264.84 652.25 258.14 650.80 252.26 642.66 C 246.39 634.53 238.56 622.35 235.23 610.46 C 231.89 598.58 232.22 583.28 232.24 571.36 C 232.26 559.44 230.99 549.66 235.37 538.95 C 239.75 528.24 251.04 512.77 258.52 507.09 C 266.01 501.41 272.19 506.97 280.28 504.88 C 288.38 502.78 299.76 491.94 307.07 494.52 C 314.39 497.09 317.48 514.95 324.17 520.32 C 330.86 525.69 339.41 525.24 347.20 526.75 C 354.99 528.25 365.05 531.54 370.89 529.36 C 376.74 527.19 377.16 519.09 382.27 513.71 C 387.38 508.33 395.15 500.07 401.55 497.10 C 407.96 494.13 414.24 500.63 420.70 495.87 C 427.16 491.11 434.90 478.46 440.31 468.54 C 445.73 458.62 453.71 445.87 453.19 436.34 C 452.67 426.81 438.39 419.56 437.20 411.35 C 436.01 403.14 441.19 394.02 446.05 387.07 C 450.91 380.12 458.49 374.04 466.37 369.65 C 474.25 365.26 484.81 366.19 493.35 360.72 C 501.89 355.25 511.24 347.03 517.62 336.84 C 524.00 326.64 526.60 312.66 531.63 299.55 C 536.65 286.44 543.22 271.91 547.79 258.19 C 552.35 244.47 557.38 231.91 559.02 217.22 C 560.66 202.53 557.96 185.99 557.65 170.06 C 557.34 154.13 554.86 136.52 557.16 121.64 C 559.45 106.75 566.44 93.92 571.41 80.75 C 576.37 67.59 580.28 52.31 586.95 42.67 C 593.63 33.03 603.02 25.65 611.45 22.93 C 619.88 20.22 629.45 21.61 637.53 26.38 C 645.61 31.14 651.68 45.77 659.93 51.51 C 668.19 57.26 678.24 59.98 687.06 60.87 C 695.87 61.76 704.81 57.01 712.83 56.85 C 720.85 56.69 728.42 56.72 735.19 59.91 C 741.96 63.09 746.74 72.08 753.48 75.97 C 760.22 79.87 769.58 75.26 775.62 83.30 C 781.65 91.35 787.53 111.55 789.66 124.23 C 791.80 136.91 790.10 149.66 788.44 159.39 C 786.78 169.12 782.87 171.68 779.68 182.61 C 776.50 193.54 772.75 211.42 769.34 224.98 C 765.93 238.55 763.37 251.00 759.24 263.99 C 755.11 276.99 744.93 290.09 744.56 302.97 C 744.20 315.84 755.64 328.67 757.05 341.23 C 758.47 353.79 756.02 366.70 753.04 378.33 C 750.05 389.95 741.54 400.38 739.16 410.96 C 736.77 421.54 738.30 428.79 738.74 441.80 C 739.18 454.81 740.27 473.32 741.79 489.02 C 743.31 504.72 748.30 520.59 747.85 536.01 C 747.40 551.43 741.89 565.75 739.09 581.57 C 736.28 597.39 728.83 619.15 731.01 630.93 C 733.20 642.70 744.85 651.45 752.19 652.21 C 759.53 652.97 767.34 640.26 775.05 635.49 C 782.76 630.71 790.75 628.02 798.43 623.55 C 806.12 619.09 812.84 608.16 821.16 608.70 C 829.49 609.25 839.09 623.67 848.38 626.80 C 857.68 629.93 867.78 628.71 876.92 627.49 C 886.05 626.26 894.49 620.81 903.21 619.45 C 911.93 618.10 920.34 618.86 929.24 619.36 C 938.13 619.86 950.45 628.03 956.58 622.47 C 962.71 616.90 961.22 597.02 966.01 585.97 C 970.81 574.93 979.10 566.11 985.33 556.19 C 991.56 546.27 997.18 535.07 1003.41 526.46 C 1009.65 517.85 1016.19 513.37 1022.74 504.54 C 1029.29 495.71 1036.88 484.27 1042.72 473.47 C 1048.56 462.67 1051.61 449.77 1057.77 439.74 C 1063.92 429.70 1072.39 422.65 1079.65 413.26 C 1086.91 403.87 1093.06 390.65 1101.33 383.41 C 1109.60 376.18 1121.00 377.41 1129.24 369.88 C 1137.49 362.35 1142.39 345.34 1150.81 338.24 C 1159.22 331.14 1174.88 329.84 1179.74 327.28 C 1184.61 324.73 1180.00 322.92 1180.00 322.92" fill="none" stroke="#D4A373" stroke-width="16.0" stroke-linecap="round" stroke-linejoin="round"/>
  </g>
</svg>
